<?xml version="1.0" encoding="UTF-8" standalone="no"?>
<svg width="784px" height="83px" viewBox="0 0 784 83" version="1.1" xmlns="http://www.w3.org/2000/svg" xmlns:xlink="http://www.w3.org/1999/xlink">
    <!-- Generator: Sketch 42 (36781) - http://www.bohemiancoding.com/sketch -->
    <title>Group</title>
    <desc>Created with Sketch.</desc>
    <defs></defs>
    <g id="Page-1" stroke="none" stroke-width="1" fill="none" fill-rule="evenodd">
        <g id="Group">
            <path d="M402.253,82 L402.253,1.293 L482.597,1.293 L482.597,9.4 L411.933,9.4 L411.933,36.383 L480.056,36.383 L480.056,44.006 L411.933,44.006 L411.933,73.893 L483.202,73.893 L483.202,82 L402.253,82 Z M619.125999,54.896 L628.563999,54.896 L628.563999,58.284 C628.563999,62.8013559 628.362335,66.1489891 627.958999,68.327 C627.232996,71.8763511 625.700344,74.7399891 623.360999,76.918 C620.618319,79.6606804 616.181697,81.3546634 610.050999,82 C604.484971,82.5646695 594.724402,82.847 580.768999,82.847 C568.588272,82.847 561.167013,82.7260012 558.504999,82.484 C548.905618,81.5966622 542.250684,79.2573523 538.539999,75.466 C535.313316,72.1586501 533.29667,66.7943704 532.489999,59.373 C532.247998,56.8723208 532.126999,50.983713 532.126999,41.707 C532.126999,29.2036041 532.772326,20.5925236 534.062999,15.8735 C535.353672,11.1544764 538.015646,7.50434624 542.048999,4.923 C545.840352,2.5029879 553.221278,1.05100242 564.191999,0.567 C566.128009,0.48633293 574.113929,0.446 588.149999,0.446 C596.458707,0.446 601.943986,0.56699879 604.605999,0.809 C611.946703,1.37366949 617.189984,2.76515557 620.335999,4.9835 C623.482015,7.20184443 625.579327,10.4889782 626.627999,14.845 C627.273336,17.3456792 627.676665,21.2983063 627.837999,26.703 L618.399999,26.703 L618.399999,24.646 C618.399999,19.5639746 617.674006,16.0953426 616.221999,14.24 C614.527991,11.981322 611.059359,10.4890036 605.815999,9.763 C601.298643,9.19833051 593.070726,8.916 581.131999,8.916 C566.853928,8.916 557.738686,9.3193293 553.785999,10.126 C548.381306,11.3360061 544.993339,14.1996441 543.621999,18.717 C542.653994,22.0243499 542.169999,29.6876066 542.169999,41.707 C542.169999,49.2090375 542.250665,53.9683232 542.411999,55.985 C542.976669,62.7610339 544.307655,67.2379891 546.404999,69.416 C548.905678,71.9973462 554.148959,73.5703305 562.134999,74.135 C563.990342,74.2963341 569.636952,74.377 579.074999,74.377 C591.98173,74.377 600.814642,74.0946695 605.573999,73.53 C611.220694,72.8846634 614.971657,71.5133438 616.826999,69.416 C618.359674,67.5606574 619.125999,64.2533571 619.125999,59.494 L619.125999,54.896 Z M731.817998,0.446 C745.450733,0.446 753.396321,0.52666586 755.654998,0.688 C765.980383,1.57533777 773.038646,3.95498064 776.829998,7.827 C780.056681,11.1343499 782.073328,16.4986296 782.879998,23.92 C783.122,26.5013462 783.242998,32.4302869 783.242998,41.707 C783.242998,50.903046 783.122,56.7916538 782.879998,59.373 C782.073328,66.7943704 780.056681,72.1586501 776.829998,75.466 C772.957979,79.4186864 765.819051,81.7983293 755.412998,82.605 C753.476989,82.7663341 745.450736,82.847 731.333998,82.847 C717.217261,82.847 709.191008,82.7663341 707.254998,82.605 C696.848946,81.7983293 689.710018,79.4186864 685.837998,75.466 C682.611316,72.1586501 680.594669,66.7943704 679.787998,59.373 C679.545997,56.7916538 679.424998,50.903046 679.424998,41.707 C679.424998,32.510954 679.545997,26.5820133 679.787998,23.92 C680.594669,16.4986296 682.611316,11.1343499 685.837998,7.827 C689.629351,3.87431357 696.808612,1.4946707 707.375998,0.688 C709.392675,0.52666586 717.539927,0.446 731.817998,0.446 Z M731.817998,8.916 C720.282607,8.916 713.668007,8.95633293 711.973998,9.037 C702.213283,9.60166949 696.123011,11.2149867 693.702998,13.877 C691.605655,16.135678 690.274668,20.6529661 689.709998,27.429 C689.548664,29.687678 689.467998,34.4469637 689.467998,41.707 C689.467998,48.9670363 689.548664,53.726322 689.709998,55.985 C690.274668,62.7610339 691.605655,67.2379891 693.702998,69.416 C696.284345,72.0780133 702.172952,73.6913305 711.368998,74.256 C712.659672,74.3366671 719.314605,74.377 731.333998,74.377 C743.353392,74.377 750.008325,74.3366671 751.298998,74.256 C760.495044,73.6913305 766.383652,72.0780133 768.964998,69.416 C771.062342,67.2379891 772.393329,62.7610339 772.957998,55.985 C773.119333,53.8069891 773.199998,49.0477034 773.199998,41.707 C773.199998,29.5262724 772.67567,21.8226828 771.626998,18.596 C770.255658,14.0786441 766.70636,11.255339 760.978998,10.126 C756.864978,9.3193293 747.144742,8.916 731.817998,8.916 Z" id="ECO" fill="#676666"></path>
            <path d="M0.253,82 L0.253,1.293 L77.451,1.293 L77.451,9.4 L9.933,9.4 L9.933,37.23 L73.942,37.23 L73.942,44.853 L9.933,44.853 L9.933,82 L0.253,82 Z M196.071999,63.85 L130.005999,63.85 L119.357999,82 L108.588999,82 L156.141999,1.293 L169.814999,1.293 L217.367999,82 L206.719999,82 L196.071999,63.85 Z M191.473999,56.227 L163.038999,8.069 L134.603999,56.227 L191.473999,56.227 Z M345.789998,54.896 L355.227998,54.896 L355.227998,58.284 C355.227998,62.8013559 355.026334,66.1489891 354.622998,68.327 C353.896995,71.8763511 352.364344,74.7399891 350.024998,76.918 C347.282318,79.6606804 342.845696,81.3546634 336.714998,82 C331.148971,82.5646695 321.388402,82.847 307.432998,82.847 C295.252271,82.847 287.831012,82.7260012 285.168998,82.484 C275.569617,81.5966622 268.914684,79.2573523 265.203998,75.466 C261.977316,72.1586501 259.960669,66.7943704 259.153998,59.373 C258.911997,56.8723208 258.790998,50.983713 258.790998,41.707 C258.790998,29.2036041 259.436325,20.5925236 260.726998,15.8735 C262.017672,11.1544764 264.679645,7.50434624 268.712998,4.923 C272.504351,2.5029879 279.885277,1.05100242 290.855998,0.567 C292.792008,0.48633293 300.777928,0.446 314.813998,0.446 C323.122707,0.446 328.607985,0.56699879 331.269998,0.809 C338.610702,1.37366949 343.853983,2.76515557 346.999998,4.9835 C350.146014,7.20184443 352.243327,10.4889782 353.291998,14.845 C353.937335,17.3456792 354.340664,21.2983063 354.501998,26.703 L345.063998,26.703 L345.063998,24.646 C345.063998,19.5639746 344.338006,16.0953426 342.885998,14.24 C341.19199,11.981322 337.723358,10.4890036 332.479998,9.763 C327.962643,9.19833051 319.734725,8.916 307.795998,8.916 C293.517927,8.916 284.402685,9.3193293 280.449998,10.126 C275.045305,11.3360061 271.657339,14.1996441 270.285998,18.717 C269.317994,22.0243499 268.833998,29.6876066 268.833998,41.707 C268.833998,49.2090375 268.914664,53.9683232 269.075998,55.985 C269.640668,62.7610339 270.971655,67.2379891 273.068998,69.416 C275.569678,71.9973462 280.812959,73.5703305 288.798998,74.135 C290.654341,74.2963341 296.300951,74.377 305.738998,74.377 C318.64573,74.377 327.478641,74.0946695 332.237998,73.53 C337.884693,72.8846634 341.635656,71.5133438 343.490998,69.416 C345.023673,67.5606574 345.789998,64.2533571 345.789998,59.494 L345.789998,54.896 Z" id="FAC" fill="#74B943"></path>
        </g>
    </g>
</svg>